Coordinates
version=1
nRows=13
nColumns=36
inDegrees=yes

Units are S.I. units (second, meters, Newtons, ...)
If the header above contains a line with 'inDegrees', this indicates whether rotational values are in degrees (yes) or radians (no).

endheader
time	pelvis_tilt	pelvis_list	pelvis_rotation	pelvis_tx	pelvis_ty	pelvis_tz	hip_flexion_r	hip_adduction_r	hip_rotation_r	knee_angle_r	knee_angle_r_beta	ankle_angle_r	subtalar_angle_r	mtp_angle_r	hip_flexion_l	hip_adduction_l	hip_rotation_l	knee_angle_l	knee_angle_l_beta	ankle_angle_l	subtalar_angle_l	mtp_angle_l	lumbar_extension	lumbar_bending	lumbar_rotation	arm_flex_r	arm_add_r	arm_rot_r	elbow_flex_r	pro_sup_r	arm_flex_l	arm_add_l	arm_rot_l	elbow_flex_l	pro_sup_l
      3.95000000	      0.71989166	     -2.12388536	     -0.26195607	      0.15605575	      0.94321683	     -0.12756284	     31.04303357	     -1.80035125	      5.55898175	     50.24836907	      0.87699948	     10.45910597	    -25.87060171	     -7.49999987	     29.70403003	      2.46004748	      8.34926328	     49.89400090	      0.87081459	     15.46277301	    -20.08281708	     -7.49999987	    -25.06877045	      1.49361902	      2.27840266	     -6.10978018	     -9.20689066	    -10.24110327	     32.31810716	     85.88018081	    361.57879556	     -6.87874257	    326.10043889	     32.69190712	     85.29642871
      3.96666670	      0.62535354	     -2.13704789	      0.17691639	      0.13602979	      0.94821396	     -0.11687131	     32.39563842	     -0.76769304	      6.29349200	     51.11344944	      0.89209798	     10.27077612	    -26.78948161	     -7.49999987	     31.35480741	      1.71814709	      8.22368887	     50.94748604	      0.88920138	     15.19441299	    -18.44630039	     -7.49999987	    -25.15688554	      1.21912300	      1.25204370	     -3.27966828	     -8.33553434	     -7.14540097	     31.74970181	     87.34447943	    363.59401698	     -8.73571358	    332.92928971	     37.21692022	     86.75386707
      3.98333330	      0.51983888	     -2.44253217	      0.35094776	      0.13868925	      0.94873219	     -0.11451577	     32.42337156	      0.27891169	      6.61698663	     50.22582362	      0.87660599	      9.72955182	    -27.04207237	     -7.49999987	     31.68566908	      0.24020520	      7.72255137	     50.25628496	      0.87713764	     15.08028586	    -15.52599285	     -7.49999987	    -24.49112943	      1.01205792	      0.95645751	     -1.64759700	     -6.98714950	     -5.76365385	     32.04733629	     87.83954862	    365.18022111	     -9.84219520	    335.75602628	     41.25089574	     87.21802725
      4.00000000	      0.31750684	     -2.45195565	      0.51649771	      0.13828496	      0.95728713	     -0.12475055	     31.32196237	      0.41068445	      6.91530751	     47.58782406	      0.83056421	      8.21871479	    -27.54725895	     -7.49999987	     31.21336077	     -0.41145439	      6.90718567	     48.18527211	      0.84099165	     14.05484553	    -13.17200667	     -7.49999987	    -23.57731059	      0.94813890	      0.13007731	     -0.17958852	     -6.38338391	     -3.27819366	     31.85996414	     86.70027577	    366.45290138	    -11.41760192	    340.67145544	     46.25230203	     86.17742272
      4.01666670	      0.65486295	     -2.39937227	      0.35277998	      0.14117513	      0.96497258	     -0.13079746	     29.31862218	      0.08405346	      7.35301786	     44.68236530	      0.77985439	      7.24320155	    -27.16947724	     -7.49999987	     29.35986326	     -0.91321360	      5.65818370	     45.35946784	      0.79167206	     13.09465484	    -11.17770102	     -7.49999987	    -22.50361611	      0.82812483	     -0.07086044	      0.19011879	     -5.86590371	     -2.67317253	     31.72655031	     87.10244191	    367.31852001	    -11.88999814	    342.96987059	     49.86539379	     86.52703427
      4.03333330	     -0.26196026	     -2.20153282	      0.11340081	      0.10966555	      0.97113972	     -0.14147509	     30.14133966	     -0.83044918	      7.52555589	     42.72148747	      0.74563062	      5.38139609	    -27.12074607	     -7.49999987	     30.12804951	     -0.78400956	      4.02196292	     43.23906576	      0.75466406	     11.43749168	     -9.98925330	     -7.49999987	    -21.28715272	      0.79351769	     -0.36465416	      0.60506869	     -6.29418607	     -2.90314111	     34.35006476	     87.17347379	    368.68821935	    -12.33683959	    345.73694334	     55.93414254	     86.57864969
      4.05000000	     -0.59283663	     -1.92528193	      0.09468484	      0.10137912	      0.98562836	     -0.15004160	     29.96365724	     -1.99892222	      7.54086934	     40.25677592	      0.70261329	      3.79051849	    -26.12880560	     -7.49999987	     29.21895512	     -0.33259337	      2.63332386	     39.28337931	      0.68562431	      9.65062706	     -8.85598858	     -7.49999987	    -20.54179625	      0.97881428	     -0.84019123	      1.58781899	     -6.77159016	     -2.88871085	     35.96593488	     85.83307984	    370.53765923	    -12.43405329	    348.37978320	     60.16617369	     85.52093993
      4.06666670	     -1.58464773	     -2.11804861	      0.27304567	      0.10318647	      0.99470795	     -0.15010349	     29.12601039	     -2.63413358	      6.81069651	     36.35425769	      0.63450149	      2.85095508	    -25.11730689	     -7.49999987	     28.76046592	     -0.43307651	      1.90911524	     35.45499247	      0.61880635	      7.76504509	     -7.08797953	     -7.49999987	    -18.25129861	      1.38469277	     -1.07519700	      1.94260840	     -7.31609606	     -3.30886061	     36.43799611	     85.95407434	    371.95672701	    -11.90246522	    349.05254236	     62.28813886	     85.73820622
      4.08333330	     -1.09812634	     -2.48840116	      0.06113071	      0.10242987	      0.99942551	     -0.15038931	     26.14795282	     -2.63358625	      6.31180999	     31.64676132	      0.55234018	      3.07627063	    -24.22085787	     -7.49999987	     26.35919458	     -0.67409664	      1.90922685	     31.51474397	      0.55003605	      6.13326702	     -6.68981429	     -7.49999987	    -18.14236506	      1.50857624	     -0.00484998	      1.50330112	     -7.22652330	     -8.99967351	     39.70995031	     91.94483815	    374.06616107	    -12.36439455	    350.72878540	     65.64783096	     90.52515637
      4.10000000	     -1.42473093	     -2.80665610	     -0.25501715	      0.10734279	      1.00464262	     -0.15567621	     23.95772187	     -2.82890504	      5.27903473	     27.40049883	      0.47822892	      3.45010056	    -23.58086142	     -7.49999987	     24.50832960	     -0.58415297	      2.50634012	     27.91151573	      0.48714785	      4.92743987	     -6.80082287	     -7.49999987	    -16.34573614	      1.74799862	     -0.05760740	      1.44477776	     -7.85193826	    -10.19197742	     41.21108728	     92.14276464	    373.88986437	    -12.37743540	    350.22742884	     68.25256446	     90.63684635
      4.11666670	     -1.32780860	     -2.86234394	     -0.90479512	      0.10619267	      1.01866149	     -0.15578898	     21.80834505	     -3.09954359	      4.09632091	     24.15641958	      0.42160906	      3.19440002	    -23.57151495	     -7.49999987	     21.66283956	     -0.56582511	      2.59372755	     23.40270239	      0.40845421	      3.62960711	     -6.93891574	     -7.49999987	    -14.90357515	      1.73736122	     -0.25831048	      1.48172377	     -8.19525430	    -11.39057167	     42.44942970	     92.98676558	    373.38703070	    -12.72657089	    349.87618500	     70.97936150	     91.38688455
      4.13333330	     -1.35015668	     -2.93022894	     -1.63397094	      0.10148108	      1.03270519	     -0.15938380	     19.83134559	     -3.17313816	      2.53783990	     20.80716311	      0.36315350	      2.76374445	    -22.78217134	     -7.49999987	     18.83088521	     -0.57833467	      2.34756598	     18.59772011	      0.32459145	      2.58051438	     -6.28296209	     -7.49999987	    -13.74147375	      1.95388828	     -0.13952700	      1.80407456	     -8.64674320	    -11.80852584	     43.19453262	     94.61871848	    372.71235252	    -12.88660453	    350.35221171	     73.19191002	     92.86153565
      4.15000000	     -1.16401221	     -3.16967765	     -2.57107190	      0.09115756	      1.03859362	     -0.15821397	     17.94234654	     -2.76720728	      1.46668644	     17.93542078	      0.31303215	      2.48117277	    -21.37574047	     -7.49999987	     16.66389565	     -0.89486872	      2.22435870	     14.82372189	      0.25872275	      1.23183508	     -5.97740458	     -7.49999987	    -13.12095859	      2.24412417	     -0.07343235	      2.64163876	     -8.99331545	    -11.98464980	     44.61388614	     95.25521583	    372.08352711	    -13.44900287	    350.74057811	     76.47714893	     93.50095492
